<svg xmlns="http://www.w3.org/2000/svg" width="24" height="24">
    <path data-name="사각형 6969" style="fill:none" d="M0 0h24v24H0z"/>
    <g data-name="합치기 85" style="stroke-linecap:round;fill:none">
        <path d="M-15455.135-10848a1.939 1.939 0 0 1-1.865-2v-9.523a1.464 1.464 0 0 1 1.454-1.474h4.089c.807 0 1.229.617 1.459 1.474l.207.737h4.925a1.936 1.936 0 0 1 1.866 2v6.788a1.937 1.937 0 0 1-1.866 2z" style="stroke:none" transform="translate(15462 10866.499)"/>
        <path d="M-15444.866-10849c.477 0 .866-.45.866-1.002v-6.788c0-.55-.389-.998-.866-.998h-5.683l-.415-1.479c-.108-.402-.228-.579-.29-.647-.054-.06-.094-.085-.203-.085h-4.089a.465.465 0 0 0-.454.474v9.523c0 .553.388 1.002.865 1.002h10.269m0 1h-10.269c-1.027 0-1.865-.896-1.865-2.002v-9.523c0-.815.651-1.474 1.454-1.474h4.089c.807 0 1.23.617 1.459 1.474l.207.737h4.925c1.032 0 1.866.896 1.866 1.998v6.788c0 1.106-.834 2.002-1.866 2.002z" style="fill:#111;stroke:none" transform="translate(15462 10866.499)"/>
    </g>
    <g data-name="그룹 2400">
        <path data-name="선 49" transform="rotate(45 -6.911 20.183)" style="stroke:#111;stroke-linecap:round;fill:none" d="M3.177 0 0 3.177"/>
    </g>
</svg>
