<svg xmlns="http://www.w3.org/2000/svg" width="24" height="24">
    <defs>
        <style>
            .cls-3{fill:none;stroke-linecap:round;stroke:#111}
        </style>
    </defs>
    <g id="ic_folder_open" transform="translate(-469 -782)">
        <path id="사각형_6969" data-name="사각형 6969" transform="translate(469 782)" style="fill:none" d="M0 0h24v24H0z"/>
        <g id="합치기_85" data-name="합치기 85" style="stroke-linecap:round;fill:none">
            <path d="M-15455.135-10848a1.939 1.939 0 0 1-1.865-2v-9.523a1.464 1.464 0 0 1 1.454-1.474h4.089c.807 0 1.229.617 1.459 1.474l.207.737h4.925a1.936 1.936 0 0 1 1.866 2v6.788a1.937 1.937 0 0 1-1.866 2z" style="stroke:none" transform="translate(15931 11648.499)"/>
            <path d="M-15444.866-10849c.477 0 .866-.45.866-1.002v-6.788c0-.55-.389-.998-.866-.998h-5.683l-.415-1.479c-.108-.402-.228-.579-.29-.647-.054-.06-.094-.085-.203-.085h-4.089a.465.465 0 0 0-.454.474v9.523c0 .553.388 1.002.865 1.002h10.269m0 1h-10.269c-1.027 0-1.865-.896-1.865-2.002v-9.523c0-.815.651-1.474 1.454-1.474h4.089c.807 0 1.23.617 1.459 1.474l.207.737h4.925c1.032 0 1.866.896 1.866 1.998v6.788c0 1.106-.834 2.002-1.866 2.002z" style="fill:#111;stroke:none" transform="translate(15931 11648.499)"/>
        </g>
        <g id="그룹_2400" data-name="그룹 2400" transform="rotate(45 486.525 -992.939)">
            <path id="선_48" data-name="선 48" class="cls-3" transform="translate(1745.5 273.5)" d="m0 0 3.177 3.177"/>
            <path id="선_49" data-name="선 49" class="cls-3" transform="translate(1745.5 273.5)" d="M3.177 0 0 3.177"/>
        </g>
    </g>
</svg>
